# xmcd
#
# Track frame offsets: 
#        150
#        24888
#        46852
#        66582
#        94489
#        120255
#        150264
#        173399
#        186589
#        210078
#        225076
#        256025
#        275718
#        294850
#        307410
#
# Disc length: 4254 seconds
#
# Revision: 2
# Processed by: cddbd v1.5.2PL0 Copyright (c) Steve Scherf et al.
# Submitted via: ExactAudioCopy v0.95b3
#
DISCID=bd109c0f
DTITLE=Одиссей Богуссевич и Наталья Княжинская - Live in clubs
DYEAR=1998
DGENRE=Jazz
TTITLE0=Grande Funk
TTITLE1=Wings of Soul
TTITLE2=Poljushko
TTITLE3=Take Five
TTITLE4=Odyssey
TTITLE5=Angel eyes
TTITLE6=Pharaon's Seal
TTITLE7=All of me
TTITLE8=Isaura
TTITLE9=Silence
TTITLE10=Biкd on fire
TTITLE11=Paraphrase on Dissie Gillespie's "Tunisian Night"
TTITLE12=Shiny sea
TTITLE13=Trip to Nowhere
TTITLE14=Miller
EXTD=YEAR: 1998
EXTT0=
EXTT1=
EXTT2=
EXTT3=
EXTT4=
EXTT5=
EXTT6=
EXTT7=
EXTT8=
EXTT9=
EXTT10=
EXTT11=
EXTT12=
EXTT13=
EXTT14=
PLAYORDER=
